<?xml version="1.0" standalone="no"?><svg xmlns="http://www.w3.org/2000/svg" viewBox="0 0 1440 320"><path fill="#98EAC1" fill-opacity="1" d="M0,256L40,234.7C80,213,160,171,240,170.7C320,171,400,213,480,234.7C560,256,640,256,720,213.3C800,171,880,85,960,80C1040,75,1120,149,1200,192C1280,235,1360,245,1400,250.7L1440,256L1440,320L1400,320C1360,320,1280,320,1200,320C1120,320,1040,320,960,320C880,320,800,320,720,320C640,320,560,320,480,320C400,320,320,320,240,320C160,320,80,320,40,320L0,320Z"></path></svg>